<?xml version="1.0" standalone="no"?>
<!DOCTYPE svg PUBLIC "-//W3C//DTD SVG 20010904//EN"
 "http://www.w3.org/TR/2001/REC-SVG-20010904/DTD/svg10.dtd">
<svg version="1.0" xmlns="http://www.w3.org/2000/svg"
 width="98.000000pt" height="98.000000pt" viewBox="0 0 98.000000 98.000000"
 preserveAspectRatio="xMidYMid meet">
<metadata>
Created by potrace 1.14, written by Peter Selinger 2001-2017
</metadata>
<g transform="translate(0.000000,98.000000) scale(0.100000,-0.100000)"
fill="#000000" stroke="none">
<path d="M135 829 c-13 -20 -27 -325 -16 -344 3 -5 6 -14 6 -20 2 -39 19 -95
28 -95 5 0 8 -3 4 -6 -16 -16 134 -194 163 -194 5 0 15 -6 22 -13 7 -7 46 -27
87 -45 l74 -33 66 33 c36 18 68 36 69 40 2 4 8 8 14 8 20 0 114 85 150 135 31
44 56 100 62 138 1 7 4 17 8 22 3 6 5 73 2 150 -4 166 -8 213 -18 223 -9 8
-716 10 -721 1z"/>
</g>
</svg>
